<svg width="48" height="33" viewBox="0 0 48 33" fill="none" xmlns="http://www.w3.org/2000/svg">
<path d="M12.3224 0.739843C9.09953 2.46928 7.79661 6.65828 9.41051 10.1024L18.129 28.7194C19.749 32.161 23.6725 33.5524 26.8979 31.8292C30.122 30.0997 31.4249 25.9095 29.811 22.4654L21.0913 3.84841C20.3144 2.19641 18.955 0.941427 17.3116 0.357572C16.4997 0.0678123 15.6359 -0.0478974 14.7763 0.0179614C13.9168 0.0838201 13.0807 0.329774 12.3224 0.739843ZM29.7594 0.739843C26.5365 2.46928 25.2336 6.65828 26.8475 10.1024L35.5659 28.7194C37.186 32.161 41.1095 33.5524 44.3348 31.8292C47.5589 30.0997 48.8618 25.9095 47.2479 22.4654L38.5282 3.84841C37.7514 2.19641 36.3919 0.941427 34.7473 0.357572C33.1027 -0.226282 31.3093 -0.0886152 29.7594 0.739843ZM6.54041 9.97949L0.693261 22.4654C-0.921864 25.9095 0.381053 30.0985 3.60516 31.8279C6.83049 33.5524 10.754 32.161 12.374 28.7194L13.8392 25.5911L6.54041 9.97949Z" fill="white"/>
</svg>
